<?xml version="1.0" encoding="UTF-8"?>
<svg width="32px" height="32px" viewBox="0 0 32 32" version="1.1" xmlns="http://www.w3.org/2000/svg" xmlns:xlink="http://www.w3.org/1999/xlink">
    <!-- Generator: Sketch 59.1 (86144) - https://sketch.com -->
    <title>Group</title>
    <desc>Created with Sketch.</desc>
    <g id="Page-1" stroke="none" stroke-width="1" fill="none" fill-rule="evenodd">
        <g id="Group" transform="translate(0.000133, 0.000000)">
            <path d="M31.9113333,14.3164 L30.6553333,15.5717333 L25.13,21.0977333 C21.2246667,25.0030667 14.8933333,25.0030667 10.9873333,21.0977333 L1.89,12.0004 L0.823333333,10.9337333 C0.292,12.5264 0,14.2284 0,15.9997333 C0,24.8364 7.16333333,31.9997333 16,31.9997333 C24.8366667,31.9997333 32,24.8364 32,15.9997333 C32,15.4310667 31.9693333,14.8697333 31.9113333,14.3164" id="Fill-1" fill="#87BBFD"></path>
            <path d="M19.6297333,13.098 C15.7244,17.0033333 9.39306667,17.0033333 5.48773333,13.098 L3.2144,10.8246667 C2.80173333,10.4126667 2.7044,9.77866667 2.97306667,9.26133333 C5.41373333,4.552 10.3297333,1.33333333 15.9997333,1.33333333 C19.7364,1.33333333 23.1444,2.73266667 25.7337333,5.03333333 C26.2997333,5.536 26.3064,6.42133333 25.7710667,6.95733333 L19.6297333,13.098 Z M27.6690667,5.05866667 C24.7497333,1.94666667 20.6030667,0 15.9997333,0 C9.61506667,0 4.10573333,3.74066667 1.53906667,9.14933333 C1.26506667,9.72533333 1.02773333,10.322 0.823733333,10.934 L1.88973333,12.0006667 L10.9877333,21.098 C14.8930667,25.0033333 21.2244,25.0033333 25.1297333,21.098 L30.6557333,15.572 L31.9110667,14.3166667 C31.5384,10.7506667 29.9924,7.536 27.6690667,5.05866667 L27.6690667,5.05866667 Z" id="Fill-4" fill="#555ABF"></path>
            <path d="M15.9998667,1.33333333 C10.3298667,1.33333333 5.41386667,4.552 2.97253333,9.26133333 C2.70453333,9.77866667 2.80186667,10.4126667 3.21453333,10.8246667 L5.4872,13.098 C9.39253333,17.0033333 15.7245333,17.0033333 19.6298667,13.098 L25.7712,6.95733333 C26.3058667,6.42133333 26.2998667,5.536 25.7338667,5.03333333 C23.1445333,2.73266667 19.7358667,1.33333333 15.9998667,1.33333333" id="Fill-6" fill="#FFFFFF"></path>
        </g>
    </g>
</svg>