<svg height="464pt" viewBox="0 0 464 464" width="464pt" xmlns="http://www.w3.org/2000/svg"><path d="m32 0h400c17.671875 0 32 14.328125 32 32v272h-464v-272c0-17.671875 14.328125-32 32-32zm0 0" fill="#cfdfe8"/><path d="m0 240h464v64h-464zm0 0" fill="#7d8d9c"/><path d="m288 416h-112l16-112h80zm0 0" fill="#394d5c"/><path d="m144 416h176c17.671875 0 32 14.328125 32 32v16h-240v-16c0-17.671875 14.328125-32 32-32zm0 0" fill="#7d8d9c"/><path d="m248 280h-32c-4.417969 0-8-3.582031-8-8s3.582031-8 8-8h32c4.417969 0 8 3.582031 8 8s-3.582031 8-8 8zm0 0" fill="#cfdfe8"/><path d="m432 416c17.671875 0 32 14.328125 32 32v16h-64v-16c0-17.671875 14.328125-32 32-32zm0 0" fill="#7d8d9c"/><path d="m432 440c-4.417969 0-8-3.582031-8-8v-16c0-4.417969 3.582031-8 8-8s8 3.582031 8 8v16c0 4.417969-3.582031 8-8 8zm0 0" fill="#394d5c"/><g fill="#238892"><path d="m136 48h48v48h-48zm0 0"/><path d="m128 136h56v48h-56zm0 0"/><path d="m216 48h128v64h-128zm0 0"/><path d="m216 144h48v48h-48zm0 0"/><path d="m296 144h32v32h-32zm0 0"/></g><path d="m40 64h-16v-40h40v16h-24zm0 0" fill="#7d8d9c"/><path d="m24 96h16v32h-16zm0 0" fill="#7d8d9c"/><path d="m440 216h-40v-16h24v-24h16zm0 0" fill="#7d8d9c"/><path d="m424 128h16v32h-16zm0 0" fill="#7d8d9c"/></svg>