<?xml version="1.0" encoding="iso-8859-1"?>
<!-- Generator: Adobe Illustrator 19.0.0, SVG Export Plug-In . SVG Version: 6.00 Build 0)  -->
<svg version="1.1" id="Capa_1" xmlns="http://www.w3.org/2000/svg" xmlns:xlink="http://www.w3.org/1999/xlink" x="0px" y="0px"
	 viewBox="0 0 472 472" style="enable-background:new 0 0 472 472;" xml:space="preserve">
<path style="fill:#FDBD40;" d="M468,224v192h-33.232L468,464l-99.696-48H204c-24.472,0-40-21.488-40-48V224
	c0-26.512,15.528-48,40-48h219.696C449.166,177.061,468.979,198.526,468,224z"/>
<g>
	<path style="fill:#FCF05A;" d="M172,448c-22.08-0.026-39.974-17.92-40-40h16c0,13.255,10.745,24,24,24V448z"/>
	<path style="fill:#FCF05A;" d="M140,472c-22.08-0.026-39.974-17.92-40-40h16c0,13.255,10.745,24,24,24V472z"/>
</g>
<g>
	<path style="fill:#5F79BA;" d="M387.464,381.112L365.6,324.904l-34.136-87.792c-1.596-4.12-6.229-6.166-10.349-4.571
		c-2.099,0.813-3.758,2.472-4.571,4.571l-56,144c-1.599,4.12,0.444,8.757,4.564,10.356c4.12,1.599,8.757-0.444,10.356-4.564
		L295.256,336h57.496l19.792,50.896c1.599,4.12,6.236,6.163,10.356,4.564c4.12-1.599,6.163-6.236,4.564-10.356l0,0V381.112z
		 M301.48,320L324,262.08L346.528,320H301.48z"/>
	<path style="fill:#5F79BA;" d="M4,48v192h33.232L4,288l99.696-48H268c24.472,0,40-21.488,40-48V48c0-26.512-15.528-48-40-48H48.304
		C22.834,1.061,3.021,22.526,4,48z"/>
</g>
<g>
	<path style="fill:#FCF05A;" d="M156,152c-4.418,0-8-3.582-8-8v-32c0-4.418,3.582-8,8-8c17.673,0,32-14.327,32-32s-14.327-32-32-32
		s-32,14.327-32,32c0,4.418-3.582,8-8,8s-8-3.582-8-8c0.004-26.51,21.498-47.997,48.007-47.993
		c26.51,0.004,47.997,21.498,47.993,48.007c-0.004,23.42-16.908,43.418-40,47.321V144C164,148.418,160.418,152,156,152z"/>
	<path style="fill:#FCF05A;" d="M162.856,187.88c0.717-1.17,1.112-2.508,1.144-3.88v-8c0-4.418-3.582-8-8-8s-8,3.582-8,8v8
		c0.037,1.453,0.481,2.866,1.28,4.08c-0.727,1.181-1.127,2.534-1.16,3.92c0,4.418,3.582,8,8,8s8-3.582,8-8
		C164.094,190.535,163.656,189.107,162.856,187.88L162.856,187.88z"/>
</g>
<g>
</g>
<g>
</g>
<g>
</g>
<g>
</g>
<g>
</g>
<g>
</g>
<g>
</g>
<g>
</g>
<g>
</g>
<g>
</g>
<g>
</g>
<g>
</g>
<g>
</g>
<g>
</g>
<g>
</g>
</svg>
