<svg height="464pt" viewBox="0 0 464 464" width="464pt" xmlns="http://www.w3.org/2000/svg"><path d="m0 368h464v32h-464zm0 0" fill="#d3843d"/><path d="m0 0h464v368h-464zm0 0" fill="#238892"/><path d="m416 400h-120v-168h120zm0 0" fill="#fdbd40"/><path d="m416 464h-120v-64h120zm0 0" fill="#394d5c"/><path d="m264 288h80v-32c0-8.835938 7.164062-16 16-16s16 7.164062 16 16v64h-112zm0 0" fill="#f6bf9b"/><path d="m416 200h-120v-120h120zm0 0" fill="#f6bf9b"/><path d="m296 288h48v-32c0-8.835938 7.164062-16 16-16s16 7.164062 16 16v64h-80zm0 0" fill="#394d5c"/><path d="m416 128h-120v-48h120zm0 0" fill="#394d5c"/><path d="m162.597656 205.898438 10.8125-11.792969 96.003906 88-10.8125 11.792969zm0 0" fill="#fdbd40"/><g fill="#fff"><path d="m88 24h32v16h-32zm0 0"/><path d="m72 24h-48v40h16v-24h32zm0 0"/><path d="m24 80h16v32h-16zm0 0"/><path d="m104 128h128v16h-128zm0 0"/><path d="m88 160h16v16h-16zm0 0"/><path d="m120 160h16v16h-16zm0 0"/><path d="m152 160h16v16h-16zm0 0"/></g></svg>